<svg xmlns="http://www.w3.org/2000/svg" width="1600" height="2400" viewBox="0 0 1600 2400">
<defs>
  <linearGradient id="bggrad" x1="0" y1="0" x2="0" y2="1">
    <stop offset="0%" stop-color="#0b1020"/>
    <stop offset="100%" stop-color="#0a0f1c"/>
  </linearGradient>
  <linearGradient id="cardgrad" x1="0" y1="0" x2="1" y2="1">
    <stop offset="0%" stop-color="#141d3b"/>
    <stop offset="100%" stop-color="#0f1730"/>
  </linearGradient>
  <linearGradient id="axgrad" x1="0" y1="1" x2="0" y2="0">
    <stop offset="0%" stop-color="#334155"/>
    <stop offset="55%" stop-color="#6ee7ff"/>
    <stop offset="100%" stop-color="#a78bfa"/>
  </linearGradient>
  <filter id="shadow" x="-20%" y="-20%" width="140%" height="140%">
    <feDropShadow dx="0" dy="8" stdDeviation="18" flood-color="#000000" flood-opacity="0.25"/>
  </filter>
  <marker id="stepArrow" markerWidth="12" markerHeight="12" refX="10" refY="6" orient="auto" markerUnits="userSpaceOnUse">
    <path d="M0,0 L12,6 L0,12 Z" fill="#36588a"/>
  </marker>
  <style>
    .title { font: 700 64px Inter, Arial, sans-serif; fill: #edf2ff; letter-spacing: -1px; }
    .subtitle { font: 400 24px Inter, Arial, sans-serif; fill: #9fb0e3; }
    .eyebrow { font: 700 18px Inter, Arial, sans-serif; fill: #6ee7ff; letter-spacing: 2.2px; }
    .layerTag { font: 700 18px Inter, Arial, sans-serif; fill: #6ee7ff; }
    .h1 { font: 700 42px Inter, Arial, sans-serif; fill: #edf2ff; letter-spacing: -0.7px; }
    .h2 { font: 700 30px Inter, Arial, sans-serif; fill: #edf2ff; }
    .body { font: 400 23px Inter, Arial, sans-serif; fill: #edf2ff; }
    .muted { font: 400 20px Inter, Arial, sans-serif; fill: #9fb0e3; }
    .small { font: 400 17px Inter, Arial, sans-serif; fill: #9fb0e3; }
    .label { font: 700 16px Inter, Arial, sans-serif; fill: #9fb0e3; letter-spacing: 1.4px; }
    .chip { font: 700 18px Inter, Arial, sans-serif; fill: #edf2ff; }
    .tiny { font: 600 13px Inter, Arial, sans-serif; fill: #9fb0e3; letter-spacing: 1.2px; }
  </style>
</defs>
<rect width="100%" height="100%" fill="url(#bggrad)"/>

<line x1="0" y1="0" x2="0" y2="2400" stroke="#152042" stroke-width="1" opacity="0.35"/>
<line x1="80" y1="0" x2="80" y2="2400" stroke="#152042" stroke-width="1" opacity="0.35"/>
<line x1="160" y1="0" x2="160" y2="2400" stroke="#152042" stroke-width="1" opacity="0.35"/>
<line x1="240" y1="0" x2="240" y2="2400" stroke="#152042" stroke-width="1" opacity="0.35"/>
<line x1="320" y1="0" x2="320" y2="2400" stroke="#152042" stroke-width="1" opacity="0.35"/>
<line x1="400" y1="0" x2="400" y2="2400" stroke="#152042" stroke-width="1" opacity="0.35"/>
<line x1="480" y1="0" x2="480" y2="2400" stroke="#152042" stroke-width="1" opacity="0.35"/>
<line x1="560" y1="0" x2="560" y2="2400" stroke="#152042" stroke-width="1" opacity="0.35"/>
<line x1="640" y1="0" x2="640" y2="2400" stroke="#152042" stroke-width="1" opacity="0.35"/>
<line x1="720" y1="0" x2="720" y2="2400" stroke="#152042" stroke-width="1" opacity="0.35"/>
<line x1="800" y1="0" x2="800" y2="2400" stroke="#152042" stroke-width="1" opacity="0.35"/>
<line x1="880" y1="0" x2="880" y2="2400" stroke="#152042" stroke-width="1" opacity="0.35"/>
<line x1="960" y1="0" x2="960" y2="2400" stroke="#152042" stroke-width="1" opacity="0.35"/>
<line x1="1040" y1="0" x2="1040" y2="2400" stroke="#152042" stroke-width="1" opacity="0.35"/>
<line x1="1120" y1="0" x2="1120" y2="2400" stroke="#152042" stroke-width="1" opacity="0.35"/>
<line x1="1200" y1="0" x2="1200" y2="2400" stroke="#152042" stroke-width="1" opacity="0.35"/>
<line x1="1280" y1="0" x2="1280" y2="2400" stroke="#152042" stroke-width="1" opacity="0.35"/>
<line x1="1360" y1="0" x2="1360" y2="2400" stroke="#152042" stroke-width="1" opacity="0.35"/>
<line x1="1440" y1="0" x2="1440" y2="2400" stroke="#152042" stroke-width="1" opacity="0.35"/>
<line x1="1520" y1="0" x2="1520" y2="2400" stroke="#152042" stroke-width="1" opacity="0.35"/>
<line x1="1600" y1="0" x2="1600" y2="2400" stroke="#152042" stroke-width="1" opacity="0.35"/>
<line x1="0" y1="0" x2="1600" y2="0" stroke="#152042" stroke-width="1" opacity="0.35"/>
<line x1="0" y1="80" x2="1600" y2="80" stroke="#152042" stroke-width="1" opacity="0.35"/>
<line x1="0" y1="160" x2="1600" y2="160" stroke="#152042" stroke-width="1" opacity="0.35"/>
<line x1="0" y1="240" x2="1600" y2="240" stroke="#152042" stroke-width="1" opacity="0.35"/>
<line x1="0" y1="320" x2="1600" y2="320" stroke="#152042" stroke-width="1" opacity="0.35"/>
<line x1="0" y1="400" x2="1600" y2="400" stroke="#152042" stroke-width="1" opacity="0.35"/>
<line x1="0" y1="480" x2="1600" y2="480" stroke="#152042" stroke-width="1" opacity="0.35"/>
<line x1="0" y1="560" x2="1600" y2="560" stroke="#152042" stroke-width="1" opacity="0.35"/>
<line x1="0" y1="640" x2="1600" y2="640" stroke="#152042" stroke-width="1" opacity="0.35"/>
<line x1="0" y1="720" x2="1600" y2="720" stroke="#152042" stroke-width="1" opacity="0.35"/>
<line x1="0" y1="800" x2="1600" y2="800" stroke="#152042" stroke-width="1" opacity="0.35"/>
<line x1="0" y1="880" x2="1600" y2="880" stroke="#152042" stroke-width="1" opacity="0.35"/>
<line x1="0" y1="960" x2="1600" y2="960" stroke="#152042" stroke-width="1" opacity="0.35"/>
<line x1="0" y1="1040" x2="1600" y2="1040" stroke="#152042" stroke-width="1" opacity="0.35"/>
<line x1="0" y1="1120" x2="1600" y2="1120" stroke="#152042" stroke-width="1" opacity="0.35"/>
<line x1="0" y1="1200" x2="1600" y2="1200" stroke="#152042" stroke-width="1" opacity="0.35"/>
<line x1="0" y1="1280" x2="1600" y2="1280" stroke="#152042" stroke-width="1" opacity="0.35"/>
<line x1="0" y1="1360" x2="1600" y2="1360" stroke="#152042" stroke-width="1" opacity="0.35"/>
<line x1="0" y1="1440" x2="1600" y2="1440" stroke="#152042" stroke-width="1" opacity="0.35"/>
<line x1="0" y1="1520" x2="1600" y2="1520" stroke="#152042" stroke-width="1" opacity="0.35"/>
<line x1="0" y1="1600" x2="1600" y2="1600" stroke="#152042" stroke-width="1" opacity="0.35"/>
<line x1="0" y1="1680" x2="1600" y2="1680" stroke="#152042" stroke-width="1" opacity="0.35"/>
<line x1="0" y1="1760" x2="1600" y2="1760" stroke="#152042" stroke-width="1" opacity="0.35"/>
<line x1="0" y1="1840" x2="1600" y2="1840" stroke="#152042" stroke-width="1" opacity="0.35"/>
<line x1="0" y1="1920" x2="1600" y2="1920" stroke="#152042" stroke-width="1" opacity="0.35"/>
<line x1="0" y1="2000" x2="1600" y2="2000" stroke="#152042" stroke-width="1" opacity="0.35"/>
<line x1="0" y1="2080" x2="1600" y2="2080" stroke="#152042" stroke-width="1" opacity="0.35"/>
<line x1="0" y1="2160" x2="1600" y2="2160" stroke="#152042" stroke-width="1" opacity="0.35"/>
<line x1="0" y1="2240" x2="1600" y2="2240" stroke="#152042" stroke-width="1" opacity="0.35"/>
<line x1="0" y1="2320" x2="1600" y2="2320" stroke="#152042" stroke-width="1" opacity="0.35"/>
<line x1="0" y1="2400" x2="1600" y2="2400" stroke="#152042" stroke-width="1" opacity="0.35"/>
<text x="120" y="120" class="eyebrow">ADEU / RECURSIVE SELF-IMPROVEMENT</text>
<text x="120" y="190" class="title">Constitutional self-amendment</text>
<text x="120" y="240" class="title">inside a composite intelligence system</text>
<text x="120" y="305" class="subtitle">Synthesised view with the two highest abstraction layers foregrounded on a vertical axis.</text>
<line x1="170" y1="430" x2="170" y2="2130" stroke="url(#axgrad)" stroke-width="10" stroke-linecap="round"/>
<polygon points="152,430 188,430 170,395" fill="#a78bfa"/>
<text x="82" y="390" transform="rotate(-90 82 390)" class="label">ABSTRACTION ↑</text>
<circle cx="170" cy="560" r="18" fill="#0b1020" stroke="#6ee7ff" stroke-width="4"/>
<text x="130" y="552" class="tiny" text-anchor="end">L5</text>
<text x="130" y="578" class="small" text-anchor="end">Constitution</text>
<circle cx="170" cy="1030" r="18" fill="#0b1020" stroke="#6ee7ff" stroke-width="4"/>
<text x="130" y="1022" class="tiny" text-anchor="end">L4</text>
<text x="130" y="1048" class="small" text-anchor="end">Recursive utility</text>
<circle cx="170" cy="1510" r="18" fill="#0b1020" stroke="#6ee7ff" stroke-width="4"/>
<text x="130" y="1502" class="tiny" text-anchor="end">L3</text>
<text x="130" y="1528" class="small" text-anchor="end">Evaluation filter</text>
<circle cx="170" cy="1945" r="18" fill="#0b1020" stroke="#6ee7ff" stroke-width="4"/>
<text x="130" y="1937" class="tiny" text-anchor="end">L2-L1</text>
<text x="130" y="1963" class="small" text-anchor="end">Operational gate</text>
<rect x="270" y="430" rx="34" ry="34" width="1190" height="390" fill="url(#cardgrad)" stroke="#31407a" stroke-width="2" filter="url(#shadow)"/>
<rect x="298" y="458" rx="18" ry="18" width="170" height="44" fill="#0f2338" stroke="#234c6b" stroke-width="1.5"/>
<text x="320" y="488" class="layerTag">LAYER 5</text>
<text x="306" y="548" class="h1">Constitutional principle</text>
<text x="306" y="612" class="body">ADEU may improve only through explicit self-amendment that</text>
<text x="306" y="654" class="body">preserves system coherence, keeps the human structurally</text>
<text x="306" y="696" class="body">internal, and makes integration legible in O / E / D / U</text>
<text x="306" y="738" class="body">terms.</text>
<rect x="1085" y="580" rx="26" ry="26" width="325" height="172" fill="#0d1a2b" stroke="#2a4b6d" stroke-width="1.5"/>
<text x="1113" y="622" class="tiny">NON-NEGOTIABLE CORE</text>
<circle cx="1109" cy="656" r="5" fill="#34d399"/>
<text x="1127" y="662" class="small">Human remains inside the loop</text>
<circle cx="1109" cy="690" r="5" fill="#34d399"/>
<text x="1127" y="696" class="small">Governability over raw speed</text>
<circle cx="1109" cy="724" r="5" fill="#34d399"/>
<text x="1127" y="730" class="small">Auditability and rollback required</text>
<rect x="310" y="900" rx="34" ry="34" width="1150" height="430" fill="url(#cardgrad)" stroke="#31407a" stroke-width="2" filter="url(#shadow)"/>
<rect x="338" y="928" rx="18" ry="18" width="170" height="44" fill="#142432" stroke="#29506e" stroke-width="1.5"/>
<text x="360" y="958" class="layerTag">LAYER 4</text>
<text x="346" y="1018" class="h1">Primary recursive utility</text>
<text x="346" y="1080" class="body">Self-improve by evaluating external advancements, admitting</text>
<text x="346" y="1122" class="body">only what passes the ADEU quality threshold and strengthens</text>
<text x="346" y="1164" class="body">the composite human-machine system.</text>
<rect x="346" y="1218" rx="18" ry="18" width="88" height="42" fill="#12253a" stroke="#2a4c6d" stroke-width="1.2"/>
<text x="364" y="1245" class="chip">papers</text>
<rect x="448" y="1218" rx="18" ry="18" width="77" height="42" fill="#12253a" stroke="#2a4c6d" stroke-width="1.2"/>
<text x="466" y="1245" class="chip">repos</text>
<rect x="539" y="1218" rx="18" ry="18" width="77" height="42" fill="#12253a" stroke="#2a4c6d" stroke-width="1.2"/>
<text x="557" y="1245" class="chip">tools</text>
<rect x="630" y="1218" rx="18" ry="18" width="132" height="42" fill="#12253a" stroke="#2a4c6d" stroke-width="1.2"/>
<text x="648" y="1245" class="chip">benchmarks</text>
<rect x="776" y="1218" rx="18" ry="18" width="121" height="42" fill="#12253a" stroke="#2a4c6d" stroke-width="1.2"/>
<text x="794" y="1245" class="chip">workflows</text>
<rect x="911" y="1218" rx="18" ry="18" width="99" height="42" fill="#12253a" stroke="#2a4c6d" stroke-width="1.2"/>
<text x="929" y="1245" class="chip">methods</text>
<rect x="1125" y="1050" rx="26" ry="26" width="290" height="206" fill="#101827" stroke="#335073" stroke-width="1.5"/>
<text x="1153" y="1092" class="tiny">ADMISSION TEST</text>
<rect x="1143" y="1113" width="12" height="12" rx="3" fill="#f59e0b"/>
<text x="1167" y="1128" class="small">real gain on one or more axes</text>
<rect x="1143" y="1144" width="12" height="12" rx="3" fill="#f59e0b"/>
<text x="1167" y="1159" class="small">no unacceptable regressions</text>
<rect x="1143" y="1175" width="12" height="12" rx="3" fill="#f59e0b"/>
<text x="1167" y="1190" class="small">explicit justification possible</text>
<rect x="1143" y="1206" width="12" height="12" rx="3" fill="#f59e0b"/>
<text x="1167" y="1221" class="small">human-integrated</text>
<text x="1167" y="1242" class="small">architecture preserved</text>
<rect x="330" y="1430" rx="30" ry="30" width="1110" height="340" fill="#0f1630" stroke="#2a3768" stroke-width="2" filter="url(#shadow)"/>
<text x="362" y="1486" class="h2">Compressed support layer: quality threshold filter</text>
<text x="362" y="1522" class="muted">External candidates are screened through all four ADEU axes before adoption.</text>
<rect x="362" y="1556" rx="24" ry="24" width="245" height="178" fill="#111a32" stroke="#6ee7ff" stroke-width="2"/>
<text x="382" y="1600" class="h2" fill="#edf2ff">O  Ontology</text>
<text x="382" y="1638" class="small">Sharpen entities, roles,</text>
<text x="382" y="1659" class="small">boundaries</text>
<line x1="382" y1="1682" x2="587" y2="1682" stroke="#26345f" stroke-width="1"/>
<circle cx="386" cy="1704" r="4" fill="#6ee7ff"/>
<text x="400" y="1709" class="small">avoid hidden coupling</text>
<circle cx="386" cy="1726" r="4" fill="#6ee7ff"/>
<text x="400" y="1731" class="small">reduce ambiguity</text>
<rect x="625" y="1556" rx="24" ry="24" width="245" height="178" fill="#111a32" stroke="#34d399" stroke-width="2"/>
<text x="645" y="1600" class="h2" fill="#edf2ff">E  Epistemics</text>
<text x="645" y="1638" class="small">Improve verification</text>
<text x="645" y="1659" class="small">and provenance</text>
<line x1="645" y1="1682" x2="850" y2="1682" stroke="#26345f" stroke-width="1"/>
<circle cx="649" cy="1704" r="4" fill="#34d399"/>
<text x="663" y="1709" class="small">track uncertainty</text>
<circle cx="649" cy="1726" r="4" fill="#34d399"/>
<text x="663" y="1731" class="small">resist benchmark theater</text>
<rect x="888" y="1556" rx="24" ry="24" width="245" height="178" fill="#111a32" stroke="#f59e0b" stroke-width="2"/>
<text x="908" y="1600" class="h2" fill="#edf2ff">D  Deontics</text>
<text x="908" y="1638" class="small">Strengthen explicit</text>
<text x="908" y="1659" class="small">governability</text>
<line x1="908" y1="1682" x2="1113" y2="1682" stroke="#26345f" stroke-width="1"/>
<circle cx="912" cy="1704" r="4" fill="#f59e0b"/>
<text x="926" y="1709" class="small">state permissions</text>
<circle cx="912" cy="1726" r="4" fill="#f59e0b"/>
<text x="926" y="1731" class="small">avoid opaque power</text>
<rect x="1151" y="1556" rx="24" ry="24" width="245" height="178" fill="#111a32" stroke="#fb7185" stroke-width="2"/>
<text x="1171" y="1600" class="h2" fill="#edf2ff">U  Utility</text>
<text x="1171" y="1638" class="small">Create durable</text>
<text x="1171" y="1659" class="small">system-level gain</text>
<line x1="1171" y1="1682" x2="1376" y2="1682" stroke="#26345f" stroke-width="1"/>
<circle cx="1175" cy="1704" r="4" fill="#fb7185"/>
<text x="1189" y="1709" class="small">prefer compounding value</text>
<circle cx="1175" cy="1726" r="4" fill="#fb7185"/>
<text x="1189" y="1731" class="small">reject local-only wins</text>
<rect x="350" y="1845" rx="30" ry="30" width="1090" height="340" fill="#0d1427" stroke="#28355f" stroke-width="2" filter="url(#shadow)"/>
<text x="382" y="1901" class="h2">Compressed support layer: operational gate</text>
<circle cx="422" cy="1975" r="30" fill="#12203a" stroke="#36588a" stroke-width="2"/>
<text x="410" y="1983" class="chip">1</text>
<text x="386" y="2037" class="small">describe</text>
<line x1="454" y1="1975" x2="526" y2="1975" stroke="#36588a" stroke-width="3" stroke-linecap="round" marker-end="url(#stepArrow)"/>
<circle cx="592" cy="1975" r="30" fill="#12203a" stroke="#36588a" stroke-width="2"/>
<text x="580" y="1983" class="chip">2</text>
<text x="556" y="2037" class="small">map</text>
<line x1="624" y1="1975" x2="696" y2="1975" stroke="#36588a" stroke-width="3" stroke-linecap="round" marker-end="url(#stepArrow)"/>
<circle cx="762" cy="1975" r="30" fill="#12203a" stroke="#36588a" stroke-width="2"/>
<text x="750" y="1983" class="chip">3</text>
<text x="726" y="2037" class="small">classify</text>
<line x1="794" y1="1975" x2="866" y2="1975" stroke="#36588a" stroke-width="3" stroke-linecap="round" marker-end="url(#stepArrow)"/>
<circle cx="932" cy="1975" r="30" fill="#12203a" stroke="#36588a" stroke-width="2"/>
<text x="920" y="1983" class="chip">4</text>
<text x="896" y="2037" class="small">evaluate</text>
<line x1="964" y1="1975" x2="1036" y2="1975" stroke="#36588a" stroke-width="3" stroke-linecap="round" marker-end="url(#stepArrow)"/>
<circle cx="1102" cy="1975" r="30" fill="#12203a" stroke="#36588a" stroke-width="2"/>
<text x="1090" y="1983" class="chip">5</text>
<text x="1066" y="2037" class="small">decide</text>
<line x1="1134" y1="1975" x2="1206" y2="1975" stroke="#36588a" stroke-width="3" stroke-linecap="round" marker-end="url(#stepArrow)"/>
<circle cx="1272" cy="1975" r="30" fill="#12203a" stroke="#36588a" stroke-width="2"/>
<text x="1260" y="1983" class="chip">6</text>
<text x="1236" y="2037" class="small">record / review</text>
<rect x="382" y="2059" rx="24" ry="24" width="1026" height="92" fill="#111a31" stroke="#2f416f" stroke-width="1.5"/>
<text x="410" y="2097" class="tiny">META-PRINCIPLE</text>
<text x="410" y="2135" class="h2">Prefer governed compounding over uncontrolled acceleration.</text>
<line x1="120" y1="2265" x2="1480" y2="2265" stroke="#23325a" stroke-width="1.5"/>
<text x="120" y="2316" class="small">Reading direction: top = what may change ADEU; lower bands = how change is screened, admitted, and kept governable.</text>
<text x="120" y="2360" class="small">Core synthesis: not autonomous drift, but constitutional self-amendment with the human kept structurally inside the system.</text>
</svg>
